# xmcd
#
# Track frame offsets:
#	150
#	21812
#	38875
#	58454
#	77586
#	102381
#	119486
#	130903
#	169167
#	187953
#	219404
#
# Disc length: 3351 seconds
#
# Revision: 0
# Processed by: cddbd v1.5PL3 Copyright (c) Steve Scherf et al.
# Submitted via: dBpowerAMP V4.0
#
DISCID=990d150b
DTITLE=Eddie Woolsey - Cuanto Daría
DYEAR=2000
DGENRE=Gospel
TTITLE0=Tan Cerca de Tí
TTITLE1=Sediento Estoy
TTITLE2=Con Toda Mi Vida
TTITLE3=Cristo, Tu Eres Mi Dios
TTITLE4=Que Fluya El Rio
TTITLE5=Amante De Tí
TTITLE6=No Quiero Nada
TTITLE7=Cuanto Daría
TTITLE8=No Quiero Buscar
TTITLE9=Mi Anhelo
TTITLE10=Adorandote
EXTD=Néstor Sánchez
EXTT0=
EXTT1=
EXTT2=
EXTT3=
EXTT4=
EXTT5=
EXTT6=
EXTT7=
EXTT8=
EXTT9=
EXTT10=
PLAYORDER=
